# xmcd
#
# Track frame offsets:
#        150
#        18622
#        38927
#        57957
#        79135
#        99465
#        122522
#        142972
#        162270
#        183715
#
# Disc length: 2741 seconds
#
# Revision: 0
# Processed by: cddbd v1.5.1PL0 Copyright (c) Steve Scherf et al.
# Submitted via: ExactAudioCopy v0.95a4
#
DISCID=820ab30a
DTITLE=ATSUKO ENOMOTO - Private Heaven
DYEAR=2004
DGENRE=JPop
TTITLE0=Eternal place
TTITLE1=moon
TTITLE2=Starting Line
TTITLE3=My Precious
TTITLE4=infinity
TTITLE5=STRENGTH
TTITLE6=over
TTITLE7=No!
TTITLE8=as sunrise
TTITLE9=Believe
EXTD=
EXTT0=
EXTT1=
EXTT2=
EXTT3=
EXTT4=
EXTT5=
EXTT6=
EXTT7=
EXTT8=
EXTT9=
PLAYORDER=
